<?xml version="1.0" encoding="utf-8"?>
<!-- Svg Vector Icons : http://www.onlinewebfonts.com/icon -->
<!DOCTYPE svg PUBLIC "-//W3C//DTD SVG 1.1//EN" "http://www.w3.org/Graphics/SVG/1.1/DTD/svg11.dtd">
<svg version="1.1" xmlns="http://www.w3.org/2000/svg" xmlns:xlink="http://www.w3.org/1999/xlink" x="0px" y="0px" viewBox="0 0 1000 1000" enable-background="new 0 0 1000 1000" xml:space="preserve">
<metadata> Svg Vector Icons : http://www.onlinewebfonts.com/icon </metadata>
<g><path d="M620,357.9c-6.5-7.8-10.5-20.1-13-36.8l-32.8,5.9c1.2,16.1,5.7,29.7,13.2,40.9c7.5,11.1,15.5,19.3,25.7,24.2c10.3,5,28.3,8.5,39.2,10.5v20.8h21.8v-21.2c21.8-1,41.5-8.8,56-23.1c14.5-14.4,21.6-32.3,21.6-53.9c0-9.8-1.9-18.9-5.3-27.3c-3.5-8.4-8.4-15.7-14.9-21.8c-6.4-6.1-14.5-11.3-24.7-15.5c-5.4-2.2-21.7-5.2-32.6-9.1v-89.6c10.9,2.1,18.9,6.4,25,12.9c6.1,6.5,10.1,15.9,12,28.1l33.9-4.8c-2.9-19.7-11.3-35.2-25.7-46.4c-11.2-8.9-23.4-14.2-45.2-15.9v-16.9h-21.8v16.9c-21.8,2.1-37.2,7.7-48.3,16.9c-16.5,13.7-24.3,31.6-24.3,53.7c0,12.4,3.1,23.5,8.7,33.3c5.7,9.8,12.9,17.4,23.3,23c14.1,7.5,29.7,12.4,40.6,14.8v98.9C641.4,375.1,629.3,368.9,620,357.9z M674.1,281.7c21.8,5.4,29.1,11.5,35.1,18.4c5.9,6.9,8.8,15.9,8.8,27.2c0,13.2-4.2,24.3-12.5,33.3s-20.5,14.2-31.4,15.7V281.7z M621.4,230.4c-6.3-7.1-8.9-16-8.9-26.6c0-10.7,2.9-20,10.3-27.8c7.4-7.8,18.6-12.7,29.5-14.5v86C641.4,243.3,627.7,237.6,621.4,230.4z"/><path d="M238.9,194.9h293.7v21.8H238.9V194.9z"/><path d="M238.9,314.6h293.7v21.8H238.9V314.6z"/><path d="M761.1,782.4V477.8H238.9v304.6H761.1z M423.8,771.5v-76.2H587v76.2H423.8z M587,608.3v76.2H423.8v-76.2H587z M423.8,597.5v-76.2H587v76.2H423.8z M750.2,771.5H597.9v-76.2h152.3V771.5z M750.2,684.5H597.9v-76.2h152.3V684.5z M750.2,597.5H597.9v-76.2h152.3V597.5z M249.8,521.3H413v76.2H249.8V521.3z M249.8,608.3H413v76.2H249.8V608.3z M249.8,771.5v-76.2H413v76.2H249.8z"/><path d="M151.9,10v893l87,87l87-87l87,87l87-87l87,87l87-87l87,87l87-87V10H151.9z M793.7,880.3l-32.6,32.7l-86.9-87.2L587,913.1l-87-87l-87,87l-87.2-87.2l-86.9,87.2L206.3,880V64.4h587.5V880.3z"/></g>
</svg>